<svg id="Layer_1" data-name="Layer 1" xmlns="http://www.w3.org/2000/svg" viewBox="0 0 513.81 68.08"><defs><style>.cls-1{fill:#fff;}</style></defs><title>Wordmark</title><path class="cls-1" d="M29.32,15a25.5,25.5,0,0,1,7.79,18.7,25.49,25.49,0,0,1-7.79,18.72,25.53,25.53,0,0,1-18.7,7.77H0v-53H10.62A25.5,25.5,0,0,1,29.32,15ZM21.82,44.89a15.27,15.27,0,0,0,4.67-11.22,15.34,15.34,0,0,0-4.67-11.22,15.26,15.26,0,0,0-11.21-4.68V49.54A15.31,15.31,0,0,0,21.82,44.89Z"/><path class="cls-1" d="M44.48,7.18H55.09v53H44.48Z"/><path class="cls-1" d="M96.61,7.18V17.76H75.44V28.38H91.31V39H75.44V49.54H96.61V60.16H64.82v-53Z"/><path class="cls-1" d="M138.77,9.26a27.67,27.67,0,0,1,8.46,5.67l-7.49,7.49a15.46,15.46,0,0,0-11.24-4.67,15.24,15.24,0,0,0-11.22,4.68,15.37,15.37,0,0,0-4.65,11.22,15.29,15.29,0,0,0,4.65,11.22,15.85,15.85,0,0,0,20.46,1.68A16,16,0,0,0,143.49,39h-15V28.38h26a25.65,25.65,0,0,1,.53,5.29,25.49,25.49,0,0,1-7.79,18.72,26.4,26.4,0,0,1-37.42,0A25.51,25.51,0,0,1,102,33.67,25.53,25.53,0,0,1,109.79,15a26.36,26.36,0,0,1,29-5.7Z"/><path class="cls-1" d="M205.75,15a25.5,25.5,0,0,1,7.79,18.7,25.49,25.49,0,0,1-7.79,18.72,26.4,26.4,0,0,1-37.42,0,25.51,25.51,0,0,1-7.77-18.72A25.53,25.53,0,0,1,168.33,15a26.36,26.36,0,0,1,37.42,0Zm-29.93,7.48a15.37,15.37,0,0,0-4.65,11.22,15.29,15.29,0,0,0,4.65,11.22,15.87,15.87,0,0,0,22.45,0A15.24,15.24,0,0,0,203,33.67a15.31,15.31,0,0,0-4.68-11.22,15.79,15.79,0,0,0-22.45,0Z"/><path class="cls-1" d="M253.78,52.6l-3.42,7.56H239.06L261.74,9.64l1.12-2.46L264,9.68l22.71,50.48H275.38L272,52.57l-.16-.36H253.95Zm13.25-11-4.14-9.27-4.17,9.27Z"/><path class="cls-1" d="M325.74,31.3a17.77,17.77,0,0,1,3.17,10.32,18.6,18.6,0,0,1-18.57,18.54H291.8v-53H305a12.76,12.76,0,0,1,9.35,3.89,12.75,12.75,0,0,1,3.89,9.35,13.2,13.2,0,0,1-.66,4.14A18.77,18.77,0,0,1,325.74,31.3ZM305,23.05a2.34,2.34,0,0,0,2.66-2.63A2.35,2.35,0,0,0,305,17.76h-2.63v5.29Zm0,10.62h-2.63V49.54h7.92A7.69,7.69,0,0,0,316,47.23a7.95,7.95,0,0,0-5.62-13.56Z"/><path class="cls-1" d="M336,7.18h10.62v53H336Z"/><path class="cls-1" d="M390.42,7.18,370.14,49.54h20.28V60.16H353.31l20.28-42.4H353.31V7.18Z"/><path class="cls-1" d="M411.37,52.6,408,60.16H396.65L419.33,9.64l1.12-2.46,1.15,2.5L444.3,60.16H433l-3.39-7.59-.16-.36H411.54Zm13.25-11-4.14-9.27-4.17,9.27Z"/><path class="cls-1" d="M449.39,7.18H460v53H449.39Z"/><path class="cls-1" d="M499.06,15a25.5,25.5,0,0,1,7.79,18.7,25.49,25.49,0,0,1-7.79,18.72,25.53,25.53,0,0,1-18.7,7.77H469.74v-53h10.62A25.5,25.5,0,0,1,499.06,15Zm-7.49,29.93a15.27,15.27,0,0,0,4.67-11.22,15.34,15.34,0,0,0-4.67-11.22,15.26,15.26,0,0,0-11.21-4.68V49.54A15.31,15.31,0,0,0,491.57,44.89Z"/></svg>