<?xml version="1.0" encoding="utf-8"?>
<!-- Generator: Adobe Illustrator 19.2.0, SVG Export Plug-In . SVG Version: 6.00 Build 0)  -->
<svg version="1.1" id="Layer_1" xmlns="http://www.w3.org/2000/svg" xmlns:xlink="http://www.w3.org/1999/xlink" x="0px" y="0px"
	 viewBox="0 0 600 600" style="enable-background:new 0 0 600 600;" xml:space="preserve">
<style type="text/css">
	.st0{fill:#454649;}
	.st1{fill:#4B4B4D;}
	.st2{fill:#515354;}
	.st3{fill:#606161;}
	.st4{fill:#3A3A3A;}
	.st5{fill:#3D3D3D;}
	.st6{fill:#AF3131;}
	.st7{font-family:'Roboto-Medium';}
	.st8{font-size:44.5266px;}
	.st9{fill:none;stroke:#B03131;stroke-width:3;stroke-miterlimit:10;}
</style>
<title>Box</title>
<polygon class="st0" points="38.4,222 87.2,152.5 299,195 249.1,269.8 "/>
<polygon class="st1" points="570.2,222 521.4,152.5 309.5,194.9 359.5,269.8 "/>
<polygon class="st0" points="89.3,427.5 89.3,239.6 249.6,275.6 301.6,198.3 301.6,511.3 "/>
<polygon class="st1" points="519.2,428.2 519.2,240.3 359,276.4 306.9,198.3 306.9,512 "/>
<polygon class="st2" points="304.8,111.5 304.3,196.4 87.2,152.5 "/>
<polygon class="st3" points="521.4,152.5 304.3,196.4 304.8,111.5 "/>
<polyline class="st4" points="301.6,511.3 209.5,552.9 14,465.8 89.3,427.5 "/>
<polyline class="st5" points="306.9,511.4 399,553 594.5,465.9 519.2,427.5 "/>
<text transform="matrix(0.8638 -0.5039 0.5039 0.8638 351.4854 413.6505)" class="st6 st7 st8">&lt;/code&gt;</text>
<rect x="327.3" y="335.9" transform="matrix(0.858 -0.5137 0.5137 0.858 -127.5894 264.2664)" class="st9" width="173.5" height="53.9"/>
</svg>
