<svg xmlns="http://www.w3.org/2000/svg" width="459.67" height="43.75" enable-background="new 0 0 459.67 43.75"><path fill="#FFF" d="M0,25.25l7,5.5L14,28c0,0,6.5,3.25,9.5,2.75S40,28.026,40,28.026s1.5,2.829,3,2.776s11.5-2.776,11.5-2.776	s4-1.224,8.5,0s12-2.724,15.5,0s6,1.331,9.5,2.777s8,0,8,0s1.375-2.804,2.25-1.679s2,1.25,2,1.25L101.875,30l5.375,0.625l6.875-1.25	l1.375-0.125l2.5,1.5c0,0,0.625,0.125,1-1.125s4.375-0.375,4.375-0.375l2.625,1.5c0,0,7.125,0.518,7.5,0.696	s5.625-0.571,5.625-0.571L141,29.25c0,0,1-1.775,1.625-0.888s3.125,1.388,3.125,1.388s1.125,0,1.5,0.125s5.375-0.375,5.375-0.375	L157,30.25c0,0,1.125-1.25,2.125-0.625s3,0,3.625,0.25s3.75,0,4.375,0s2-0.125,2.625,0.25s0.625,0.375,0.625,0.375	s3.75-2.125,4-1.25s0.875-0.125,1.75,0.25s-0.25,0,2.625,1s5,1.072,5.375,0.974s0.625-0.974,0.625-0.974L186,30l1.875,1.506H190	h1.625l1.625-2.006l1.5,0.125l2.75,0.75l3.625-0.5l6.625,1.631l0.875-0.756c0,0,5.125-1.625,5.375-1.125S216.875,31,216.875,31	s3-0.625,3.75-0.75s3.25-0.875,4-0.75S228.5,31,229,31s8.333,0.583,9.667-0.167s0.25-1.416,0.917-1.416s3.167,0.749,4,0.916	s1.75-0.166,2.083-0.166s1.917-0.583,2.5,0s2.25,0.845,3,1.339s2.334,0.661,2.917,0.744s5.666-1.499,7.583-1.083	s7.583,0.672,8.083,1.086s4.75-1.503,4.75-1.503s0.5-0.583,1.583-0.25s4.333,1.79,5.083,1.812s4.667-0.895,4.667-0.895l1.667,0.895	c0,0,1.833,0.811,2.75,0s4.167-0.395,4.167-0.395l0.5,0.755h1.417l1-1.171l-0.417-1c0,0,1.584-0.417,2.667-0.167	s2.833,0.5,2.833,0.5s2.417-0.001,2.833,0.083s2.583,0.501,2.917,0.834s1.167,0.921,1.167,0.921l1.417-0.338	c0,0-0.417,0.083,1-0.417s2.333-0.916,2.333-0.916s-0.916-0.583,1.334-0.5s4.5,0.416,4.5,0.416l2.75,0.584	c0,0,1.499,1.342,1.166,1.171s1.75-0.671,1.75-0.671l1.584-0.75c0,0,0.583-0.417,0.833-0.417s2,0.083,2,0.083s2,0.501,2.25,0.584	s0.749,0.333,2.333,0.583s3.416-0.167,3.75-0.167s2.167-1,2.167-1s-0.166-0.082,0.917,0.334s3.75,0.75,4.5,1.083	s1.834,0.917,2.5,0.917s0.084-0.167,0.5-0.917S350,31.501,350,31.501s1.999,0.499,2.583,0.666s3.25,0.5,3.25,0.5L367,33.917	c0,0,3.251-2,3.584-2s3.333,1.084,4.583,1.084s1-1.834,1-1.834l1.167-0.833c0,0,2.499,0.584,4.166,0.917s4.25,1,4.667,1	s2.751-0.751,3.417-0.584s4.499,1,5.166,1.417s4.084,0.167,4.084,0.167s-0.583-1.167,0-1.417s0.166-0.833,1.416-0.833	s1.334-0.25,2.084-0.167s1.5-0.167,2.25,0.083s2.833,1.418,3.583,1.084s3.749-1.167,4.333-0.917s2.667,0.333,2.917,0.5	s4.917,0.334,5.917,0.667s1.916,0.833,2.583,0.833s0.333-1.083,0.833-1.25s2.25-1.584,2.5-1.667s0.834,0.916,1.334,1.25	s1.5,0.584,2.083,0.667s1.334,0.083,2.167,0.083s3.666-0.166,3.666-0.166l4.75,1.25c0,0,1-0.834,1.417-0.834s2.333-0.332,2.75-0.166	s1.166,0.499,1.833,0.666s2.168-0.417,2.584,0s3.833,1,3.833,1s0.583-0.75,1.5-0.5s3.5-1.166,3.5-1.166l0.5-1.5l0.503-0.334V0H0	V25.25z"/></svg>