<svg version="1.1" xmlns="http://www.w3.org/2000/svg" xmlns:xlink="http://www.w3.org/1999/xlink" x="0px" y="0px" width="645.78px" height="263.733px" viewBox="0 0 645.78 263.733" enable-background="new 0 0 645.78 263.733" xml:space="preserve"><polygon points="204.834,-339.502 204.834,-335.193 204.584,-337.343 204.334,-335.193 204.334,-339.502 "/><line fill="none" x1="60.645" y1="-212.353" x2="60.555" y2="-212.413"/><line fill="none" x1="61.245" y1="-212.353" x2="60.645" y2="-212.353"/><line fill="none" x1="60.555" y1="-212.413" x2="60.555" y2="-214.093"/><line fill="none" x1="60.555" y1="-214.093" x2="60.405" y2="-214.093"/><line fill="none" x1="56.807" y1="-214.098" x2="54.182" y2="-215.223"/><line fill="none" x1="54.182" y1="-215.223" x2="50.21" y2="-215.223"/><line fill="none" x1="50.215" y1="-214.913" x2="50.215" y2="-215.223"/><line fill="none" x1="259.435" y1="-190.563" x2="259.435" y2="-190.973"/><line fill="none" x1="414.084" y1="-185.973" x2="413.935" y2="-185.973"/><line fill="none" x1="358.995" y1="-165.973" x2="358.995" y2="-167.153"/><line fill="none" x1="396.575" y1="-183.643" x2="396.575" y2="-185.073"/><polygon points="534.125,145.737 531.245,145.607 533.615,145.607 "/><path d="M645.78,187.113v76.62H0v-133.44h3.69l1.59,0.82h4.91v1.59l0.15,0.09v0.061h0.09l0.26,0.16v2.6h0.34l3.25-4.19h4.06
	l4.44,5.311v4.31h0.94l0.68,0.69v0.81h0.5l-0.12,0.75l-0.38,0.32v7.56h0.63l0.5,1.841h5.13v-28.19h3.03v-0.34h4
	c0,0-0.15-3.38,0.52-3.46c0.66-0.08-0.42-3.21,1.08-4.08c0,0,0.16-2.37,0.87-3.44c0.11-0.17,0.23-0.3,0.37-0.39
	c0,0,0.19-2.79,1.06-3.1c0,0,0.03-1.811,0.57-3.78c0,0,0.27-2.72,0.43-3.521v-0.01l0.03-0.13l0.52-12.32l0.52,12.32
	c0.01,0.03,0.02,0.08,0.03,0.13v0.01c0.16,0.801,0.43,3.521,0.43,3.521c0.54,1.97,0.57,3.78,0.57,3.78c0.87,0.31,1.06,3.1,1.06,3.1
	c0.14,0.09,0.26,0.22,0.37,0.39c0.71,1.07,0.87,3.44,0.87,3.44c1.5,0.87,0.41,4,1.08,4.08s0.52,3.46,0.52,3.46v0.13h0.63v12.18
	h17.06v-1.62h3.44v1.62h6.25v12.94h9.69v0.75h9v16.189h0.68v-10.689h3.82v-3.94h7.74v-23.43h0.82v-1.69h2.5v-4.939h0.89v2.67
	l3.59-1.5v-1h0.58v0.66l4.62,0.04v-1.5h0.63v1.38h4.13v4.62h0.62v1.88h1v30.62h0.88v-3.12h8.12v-1.67h1.12v-9.95h1.73v-52.38h1.84
	v-16h2.33v-1.92h0.5v-5.66l1.08-0.67v-4h2.5v-3.25h1.09v-1h0.41v-0.54h0.84v-1.29h0.62v-3h0.63v-3.09h0.66v-3.79h0.84v-6.83
	l0.37-0.34v-2.91l0.59-0.5v-0.88H152l0.12-0.95h0.82v-0.82h0.56v-9.25h0.4V12.854h0.22v-2.84l0.25-2.15l0.25,2.15v2.84h0.22v13.189
	h0.41v9.25h0.56v0.82h0.81l0.13,0.95h-0.43v0.88l0.58,0.5v2.91l0.38,0.34v6.83h0.83v3.79h0.67v3.09h0.62v3h0.63v1.29h0.83v0.54h0.42
	v1h1.08v3.25h2.5v4l1.09,0.67v5.66h0.5v1.92h2.33v16h1.83v62.31h1.05v-5.62h23.81v11.37h1.37v0.69h6.32v9.75h1.5v-15.061h1.5v-1.13
	h2v-0.81h1.06v-0.75h19.31v6.06h3.37v16.94h1.5v-3.63l15.19-0.311l0.02-31.729l4.09-0.41v-5.75h1.16v2.87h2.34v-1.04l16.44-0.4
	l-0.01,3.57h0.65v0.75l10.75,1.16v15.12h4.25v1.05h3.08v2.08h3v1.75h2.75v-1.33h11.67v3.83l2.83,0.92v5.08l2.25,0.92v-1.5h2.92
	v-5.42h15.67v-2.5h7.66v-2.79h1.09v-2.54h5.16v-4.75h3.42v-3.92h1v-3.41h0.83v-2.59l1.34-3.41h0.91v-0.48h0.479v0.48h0.381v-0.48
	h0.479v0.48h0.91l1.34,3.41v2.59h0.83v3.41h1v3.92h3.42v14.939h1.17v-7.189h5.07v-1.28h1.93v-5h9.101v4.811h2.22v1.279h4.84v6.69
	h1.59v7.5l1.69,1.28v-3.03h1.279l0.53-1h2.28v-2.91l0.689-0.93h3.57l0.561,0.47v3.37l5.18,0.04v4.83h12.13v-4.37l1.63-1.5h3.24
	l1.5,1.04v3.35l2.76,0.641v-2.311h8.24l0.63,4.65h1.5v-1.5l3.13-2.41l2,1.57v-3.03h7v3.87h4v-6.561l1.37,0.24v-14.3l1.75-6.25l2,2
	l5.25-15v-2.32l1.25-4.81l1.25,4.81v2.32l5.25,15l2-2l1.75,6.25v14.3h3v13.32h1.37v-49.19h19.88v42.95h3.25v-11.59l1.63-2.96v-5.33
	h6.12v5.09h2.25l1.5,1.72v14.57l2.88,0.13l10.2,0.46l3.67,1.33v1.74h4.67v-5.74l2.5-1.17v-1.83l3-1.67l1.66-0.83h4v7.58h8.67v3.66
	l3.17,1.76v3.67h6.5v-2.34l2.33-2.21h2.38l3.45-4.25l3.27,3.27h3.23v12.53l2.63,0.67v-6.939h2.87v-6.4l5.17-3.29v3.53l4.83-0.101
	v4.98h2.55l-0.05-2.89l4.84,2.409v10.181h1.83v-16.99h3.83v-8.83h5.34l3.5,4.33v7.42h5.33v-4.42l2.67-1.83h3.16l1.84,0.92v15.33
	l2.08-2.59h3.37l2,2.59h1.21v5.25l2.67-1.01v-7.66h0.92v-1.25H645.78z"/><line fill="none" x1="614.995" y1="154.147" x2="614.875" y2="154.147"/></svg>