<svg xmlns="http://www.w3.org/2000/svg" width="459.67" height="43.75"><path fill="#FFF" d="M0 25.25l7 5.5L14 28s6.5 3.25 9.5 2.75S40 28.026 40 28.026s1.5 2.829 3 2.776 11.5-2.776 11.5-2.776 4-1.224 8.5 0 12-2.724 15.5 0 6 1.331 9.5 2.777 8 0 8 0 1.375-2.804 2.25-1.679 2 1.25 2 1.25l1.625-.374 5.375.625 6.875-1.25 1.375-.125 2.5 1.5s.625.125 1-1.125 4.375-.375 4.375-.375l2.625 1.5s7.125.518 7.5.696 5.625-.571 5.625-.571L141 29.25s1-1.775 1.625-.888 3.125 1.388 3.125 1.388 1.125 0 1.5.125 5.375-.375 5.375-.375l4.375.75s1.125-1.25 2.125-.625 3 0 3.625.25 3.75 0 4.375 0 2-.125 2.625.25l.625.375s3.75-2.125 4-1.25.875-.125 1.75.25-.25 0 2.625 1 5 1.072 5.375.974.625-.974.625-.974L186 30l1.875 1.506h3.75l1.625-2.006 1.5.125 2.75.75 3.625-.5 6.625 1.631.875-.756s5.125-1.625 5.375-1.125S216.875 31 216.875 31s3-.625 3.75-.75 3.25-.875 4-.75S228.5 31 229 31s8.333.583 9.667-.167.25-1.416.917-1.416 3.167.749 4 .916 1.75-.166 2.083-.166 1.917-.583 2.5 0 2.25.845 3 1.339 2.334.661 2.917.744 5.666-1.499 7.583-1.083 7.583.672 8.083 1.086 4.75-1.503 4.75-1.503.5-.583 1.583-.25 4.333 1.79 5.083 1.812 4.667-.895 4.667-.895l1.667.895s1.833.811 2.75 0 4.167-.395 4.167-.395l.5.755h1.417l1-1.171-.417-1s1.584-.417 2.667-.167 2.833.5 2.833.5 2.417-.001 2.833.083 2.583.501 2.917.834 1.167.921 1.167.921l1.417-.338s-.417.083 1-.417 2.333-.916 2.333-.916-.916-.583 1.334-.5 4.5.416 4.5.416l2.75.584s1.499 1.342 1.166 1.171 1.75-.671 1.75-.671l1.584-.75s.583-.417.833-.417 2 .083 2 .083 2 .501 2.25.584.749.333 2.333.583 3.416-.167 3.75-.167 2.167-1 2.167-1-.166-.082.917.334 3.75.75 4.5 1.083 1.834.917 2.5.917.084-.167.5-.917 1.082-.833 1.082-.833 1.999.499 2.583.666 3.25.5 3.25.5L367 33.917s3.251-2 3.584-2 3.333 1.084 4.583 1.084 1-1.834 1-1.834l1.167-.833s2.499.584 4.166.917 4.25 1 4.667 1 2.751-.751 3.417-.584 4.499 1 5.166 1.417 4.084.167 4.084.167-.583-1.167 0-1.417.166-.833 1.416-.833 1.334-.25 2.084-.167 1.5-.167 2.25.083 2.833 1.418 3.583 1.084 3.749-1.167 4.333-.917 2.667.333 2.917.5 4.917.334 5.917.667 1.916.833 2.583.833.333-1.083.833-1.25 2.25-1.584 2.5-1.667.834.916 1.334 1.25 1.5.584 2.083.667 1.334.083 2.167.083 3.666-.166 3.666-.166l4.75 1.25s1-.834 1.417-.834 2.333-.332 2.75-.166 1.166.499 1.833.666 2.168-.417 2.584 0 3.833 1 3.833 1 .583-.75 1.5-.5 3.5-1.166 3.5-1.166l.5-1.5.503-.334V0H0v25.25z"/></svg>