<svg xmlns="http://www.w3.org/2000/svg" width="645.78" height="263.733"><path d="M204.834-339.502v4.309l-.25-2.15-.25 2.15v-4.309z"/><path fill="none" d="M60.645-212.353l-.09-.06m.69.06h-.6m-.09-.06v-1.68m0 0h-.15m-3.598-.005l-2.625-1.125m0 0H50.21m.005.31v-.31m209.22 24.66v-.41m154.649 5h-.149m-54.94 20v-1.18m37.58-16.49v-1.43"/><path d="M534.125 145.737l-2.88-.13h2.37z"/><path d="M645.78 187.113v76.62H0v-133.44h3.69l1.59.82h4.91v1.59l.15.09v.061h.09l.26.16v2.6h.34l3.25-4.19h4.06l4.44 5.311v4.31h.94l.68.69v.81h.5l-.12.75-.38.32v7.56h.63l.5 1.841h5.13v-28.19h3.03v-.34h4s-.15-3.38.52-3.46c.66-.08-.42-3.21 1.08-4.08 0 0 .16-2.37.87-3.44.11-.17.23-.3.37-.39 0 0 .19-2.79 1.06-3.1 0 0 .03-1.811.57-3.78 0 0 .27-2.72.43-3.521v-.01l.03-.13.52-12.32.52 12.32c.01.03.02.08.03.13v.01c.16.801.43 3.521.43 3.521.54 1.97.57 3.78.57 3.78.87.31 1.06 3.1 1.06 3.1.14.09.26.22.37.39.71 1.07.87 3.44.87 3.44 1.5.87.41 4 1.08 4.08s.52 3.46.52 3.46v.13h.63v12.18h17.06v-1.62h3.44v1.62h6.25v12.94h9.69v.75h9v16.189h.68v-10.689h3.82v-3.94h7.74v-23.43h.82v-1.69h2.5v-4.939h.89v2.67l3.59-1.5v-1h.58v.66l4.62.04v-1.5h.63v1.38h4.13v4.62h.62v1.88h1v30.62h.88v-3.12h8.12v-1.67h1.12v-9.95h1.73v-52.38h1.84v-16h2.33v-1.92h.5v-5.66l1.08-.67v-4h2.5v-3.25h1.09v-1h.41v-.54h.84v-1.29h.62v-3h.63v-3.09h.66v-3.79h.84v-6.83l.37-.34v-2.91l.59-.5v-.88H152l.12-.95h.82v-.82h.56v-9.25h.4V12.854h.22v-2.84l.25-2.15.25 2.15v2.84h.22v13.189h.41v9.25h.56v.82h.81l.13.95h-.43v.88l.58.5v2.91l.38.34v6.83h.83v3.79h.67v3.09h.62v3h.63v1.29h.83v.54h.42v1h1.08v3.25h2.5v4l1.09.67v5.66h.5v1.92h2.33v16h1.83v62.31h1.05v-5.62h23.81v11.37h1.37v.69h6.32v9.75h1.5v-15.061h1.5v-1.13h2v-.81h1.06v-.75h19.31v6.06h3.37v16.94h1.5v-3.63l15.19-.311.02-31.729 4.09-.41v-5.75h1.16v2.87h2.34v-1.04l16.44-.4-.01 3.57h.65v.75l10.75 1.16v15.12h4.25v1.05h3.08v2.08h3v1.75h2.75v-1.33h11.67v3.83l2.83.92v5.08l2.25.92v-1.5h2.92v-5.42h15.67v-2.5h7.66v-2.79h1.09v-2.54h5.16v-4.75h3.42v-3.92h1v-3.41h.83v-2.59l1.34-3.41h.91v-.48h.479v.48h.381v-.48h.479v.48h.91l1.34 3.41v2.59h.83v3.41h1v3.92h3.42v14.939h1.17v-7.189h5.07v-1.28h1.93v-5h9.101v4.811h2.22v1.279h4.84v6.69h1.59v7.5l1.69 1.28v-3.03h1.279l.53-1h2.28v-2.91l.689-.93h3.57l.561.47v3.37l5.18.04v4.83h12.13v-4.37l1.63-1.5h3.24l1.5 1.04v3.35l2.76.641v-2.311h8.24l.63 4.65h1.5v-1.5l3.13-2.41 2 1.57v-3.03h7v3.87h4v-6.561l1.37.24v-14.3l1.75-6.25 2 2 5.25-15v-2.32l1.25-4.81 1.25 4.81v2.32l5.25 15 2-2 1.75 6.25v14.3h3v13.32h1.37v-49.19h19.88v42.95h3.25v-11.59l1.63-2.96v-5.33h6.12v5.09h2.25l1.5 1.72v14.57l2.88.13 10.2.46 3.67 1.33v1.74h4.67v-5.74l2.5-1.17v-1.83l3-1.67 1.66-.83h4v7.58h8.67v3.66l3.17 1.76v3.67h6.5v-2.34l2.33-2.21h2.38l3.45-4.25 3.27 3.27h3.23v12.53l2.63.67v-6.939h2.87v-6.4l5.17-3.29v3.53l4.83-.101v4.98h2.55l-.05-2.89 4.84 2.409v10.181h1.83v-16.99h3.83v-8.83h5.34l3.5 4.33v7.42h5.33v-4.42l2.67-1.83h3.16l1.84.92v15.33l2.08-2.59h3.37l2 2.59h1.21v5.25l2.67-1.01v-7.66h.92v-1.25h4.581z"/><path fill="none" d="M614.995 154.147h-.12"/></svg>